<svg width="1210" height="318" viewBox="0 0 1210 318" fill="none" xmlns="http://www.w3.org/2000/svg">
<g filter="url(#filter0_d_69_2)">
<path d="M818.412 140.938C817.965 140.05 817.281 139.303 816.436 138.78C815.591 138.257 814.618 137.978 813.624 137.975H786.728V105.656C786.785 104.475 786.453 103.307 785.782 102.334C785.111 101.36 784.139 100.635 783.016 100.27C781.936 99.914 780.771 99.91 779.688 100.258C778.606 100.607 777.662 101.29 776.991 102.209L733.956 161.461C733.416 162.241 733.093 163.15 733.017 164.096C732.942 165.042 733.117 165.991 733.525 166.847C733.901 167.826 734.555 168.674 735.405 169.286C736.256 169.899 737.266 170.249 738.313 170.294H765.21V202.613C765.211 203.749 765.57 204.856 766.237 205.775C766.903 206.694 767.843 207.379 768.922 207.731C769.462 207.9 770.023 207.991 770.589 208C771.438 208.002 772.275 207.803 773.033 207.419C773.79 207.036 774.446 206.478 774.947 205.792L817.982 146.54C818.561 145.736 818.908 144.788 818.984 143.8C819.06 142.811 818.862 141.821 818.412 140.938ZM775.969 186.023V164.908C775.969 163.479 775.402 162.109 774.393 161.099C773.384 160.089 772.016 159.521 770.589 159.521H749.072L775.969 122.247V143.362C775.969 144.79 776.535 146.161 777.544 147.171C778.553 148.181 779.921 148.748 781.348 148.748H802.866L775.969 186.023Z" fill="#D7FF6B"/>
<path d="M779.229 98.8301C780.613 98.3844 782.104 98.3896 783.485 98.8447L783.484 98.8457C784.919 99.3134 786.161 100.239 787.018 101.482C787.861 102.707 788.284 104.171 788.228 105.656V136.476H813.629C814.9 136.479 816.145 136.835 817.226 137.504C818.304 138.171 819.177 139.124 819.748 140.257H819.749C820.324 141.385 820.576 142.651 820.479 143.914C820.382 145.177 819.939 146.39 819.198 147.417L819.195 147.422L776.16 206.673L776.158 206.676C775.518 207.553 774.68 208.267 773.711 208.758C772.742 209.249 771.671 209.503 770.585 209.5H770.564C769.855 209.488 769.151 209.374 768.474 209.162L768.456 209.156C767.077 208.706 765.875 207.83 765.022 206.655C764.17 205.48 763.711 204.066 763.71 202.614V171.794H738.28L738.248 171.793C736.909 171.735 735.617 171.287 734.529 170.504C733.448 169.725 732.617 168.649 732.135 167.407C731.641 166.335 731.427 165.154 731.521 163.977C731.618 162.768 732.032 161.605 732.722 160.607L732.731 160.594L732.742 160.579L775.777 101.327L775.779 101.325C776.637 100.15 777.844 99.2757 779.229 98.8301ZM752.004 158.021H770.589C772.414 158.021 774.164 158.748 775.454 160.039C776.744 161.331 777.469 163.082 777.469 164.908V181.38L799.935 150.248H781.348C779.523 150.248 777.773 149.522 776.483 148.23C775.194 146.939 774.469 145.188 774.469 143.362V126.889L752.004 158.021Z" stroke="#595959" stroke-width="3"/>
</g>
<g filter="url(#filter1_d_69_2)">
<mask id="path-3-outside-1_69_2" maskUnits="userSpaceOnUse" x="467" y="81" width="612" height="149" fill="black">
<rect fill="white" x="467" y="81" width="612" height="149"/>
<path d="M623.775 227L633.775 179.4C635.375 172.2 630.775 166.4 623.575 166.4H515.175L519.775 144.8H628.175C635.375 144.8 642.375 139 643.975 131.8L646.575 118.8C648.175 111.6 643.775 105.6 636.575 105.6H518.775L492.975 227H471.375L501.575 84.2H640.975C659.975 84.2 672.175 99.6 667.975 118.8L665.375 131.8C663.375 140.8 658.175 149.2 650.775 155.6C655.575 162 657.175 170.4 655.175 179.4L645.175 227H623.775ZM709.083 227C689.883 227 677.683 211.6 681.683 192.4L697.283 118.8C701.483 99.6 720.083 84.2 739.283 84.2H844.083C863.083 84.2 875.283 99.6 871.083 118.8L855.483 192.4C851.483 211.6 832.883 227 813.883 227H709.083ZM734.883 105.6C727.683 105.6 720.483 111.6 718.883 118.8L703.283 192.4C701.883 199.6 706.283 205.4 713.483 205.4H818.283C825.483 205.4 832.683 199.6 834.083 192.4L849.683 118.8C851.283 111.6 846.883 105.6 839.683 105.6H734.883ZM880.047 227L884.447 205.4H1019.05C1026.25 205.4 1033.45 199.6 1034.85 192.4L1037.65 179.4C1039.25 172.2 1034.65 166.4 1027.45 166.4H922.647C903.447 166.4 891.247 150.8 895.447 131.8L898.047 118.8C902.247 99.6 920.847 84.2 940.047 84.2H1074.65L1070.25 105.6H935.647C928.447 105.6 921.247 111.6 919.647 118.8L917.047 131.8C915.447 139 920.047 144.8 927.247 144.8H1032.05C1051.05 144.8 1063.05 160.4 1059.05 179.4L1056.25 192.4C1052.25 211.6 1033.65 227 1014.65 227H880.047Z"/>
</mask>
<path d="M623.775 227L633.775 179.4C635.375 172.2 630.775 166.4 623.575 166.4H515.175L519.775 144.8H628.175C635.375 144.8 642.375 139 643.975 131.8L646.575 118.8C648.175 111.6 643.775 105.6 636.575 105.6H518.775L492.975 227H471.375L501.575 84.2H640.975C659.975 84.2 672.175 99.6 667.975 118.8L665.375 131.8C663.375 140.8 658.175 149.2 650.775 155.6C655.575 162 657.175 170.4 655.175 179.4L645.175 227H623.775ZM709.083 227C689.883 227 677.683 211.6 681.683 192.4L697.283 118.8C701.483 99.6 720.083 84.2 739.283 84.2H844.083C863.083 84.2 875.283 99.6 871.083 118.8L855.483 192.4C851.483 211.6 832.883 227 813.883 227H709.083ZM734.883 105.6C727.683 105.6 720.483 111.6 718.883 118.8L703.283 192.4C701.883 199.6 706.283 205.4 713.483 205.4H818.283C825.483 205.4 832.683 199.6 834.083 192.4L849.683 118.8C851.283 111.6 846.883 105.6 839.683 105.6H734.883ZM880.047 227L884.447 205.4H1019.05C1026.25 205.4 1033.45 199.6 1034.85 192.4L1037.65 179.4C1039.25 172.2 1034.65 166.4 1027.45 166.4H922.647C903.447 166.4 891.247 150.8 895.447 131.8L898.047 118.8C902.247 99.6 920.847 84.2 940.047 84.2H1074.65L1070.25 105.6H935.647C928.447 105.6 921.247 111.6 919.647 118.8L917.047 131.8C915.447 139 920.047 144.8 927.247 144.8H1032.05C1051.05 144.8 1063.05 160.4 1059.05 179.4L1056.25 192.4C1052.25 211.6 1033.65 227 1014.65 227H880.047Z" fill="#595959"/>
<path d="M623.775 227L620.839 226.383L620.079 230H623.775V227ZM633.775 179.4L630.846 178.749L630.843 178.766L630.839 178.783L633.775 179.4ZM515.175 166.4L512.241 165.775L511.469 169.4H515.175V166.4ZM519.775 144.8V141.8H517.347L516.841 144.175L519.775 144.8ZM643.975 131.8L646.904 132.451L646.91 132.42L646.917 132.388L643.975 131.8ZM646.575 118.8L643.646 118.149L643.64 118.18L643.633 118.212L646.575 118.8ZM518.775 105.6V102.6H516.346L515.841 104.976L518.775 105.6ZM492.975 227V230H495.404L495.909 227.624L492.975 227ZM471.375 227L468.44 226.379L467.674 230H471.375V227ZM501.575 84.2V81.2H499.143L498.64 83.5793L501.575 84.2ZM667.975 118.8L665.044 118.159L665.039 118.185L665.033 118.212L667.975 118.8ZM665.375 131.8L668.304 132.451L668.311 132.42L668.317 132.388L665.375 131.8ZM650.775 155.6L648.813 153.331L646.696 155.161L648.375 157.4L650.775 155.6ZM655.175 179.4L652.246 178.749L652.243 178.766L652.239 178.783L655.175 179.4ZM645.175 227V230H647.61L648.111 227.617L645.175 227ZM623.775 227L626.711 227.617L636.711 180.017L633.775 179.4L630.839 178.783L620.839 226.383L623.775 227ZM633.775 179.4L636.704 180.051C637.677 175.67 636.798 171.477 634.332 168.344C631.863 165.208 628.01 163.4 623.575 163.4V166.4V169.4C626.34 169.4 628.387 170.492 629.618 172.056C630.852 173.623 631.473 175.93 630.846 178.749L633.775 179.4ZM623.575 166.4V163.4H515.175V166.4V169.4H623.575V166.4ZM515.175 166.4L518.109 167.025L522.709 145.425L519.775 144.8L516.841 144.175L512.241 165.775L515.175 166.4ZM519.775 144.8V147.8H628.175V144.8V141.8H519.775V144.8ZM628.175 144.8V147.8C636.85 147.8 645.014 140.955 646.904 132.451L643.975 131.8L641.046 131.149C639.736 137.045 633.9 141.8 628.175 141.8V144.8ZM643.975 131.8L646.917 132.388L649.517 119.388L646.575 118.8L643.633 118.212L641.033 131.212L643.975 131.8ZM646.575 118.8L649.504 119.451C650.47 115.103 649.663 110.884 647.275 107.7C644.87 104.494 641.054 102.6 636.575 102.6V105.6V108.6C639.296 108.6 641.28 109.706 642.475 111.3C643.687 112.916 644.28 115.297 643.646 118.149L646.575 118.8ZM636.575 105.6V102.6H518.775V105.6V108.6H636.575V105.6ZM518.775 105.6L515.841 104.976L490.041 226.376L492.975 227L495.909 227.624L521.709 106.224L518.775 105.6ZM492.975 227V224H471.375V227V230H492.975V227ZM471.375 227L474.31 227.621L504.51 84.8207L501.575 84.2L498.64 83.5793L468.44 226.379L471.375 227ZM501.575 84.2V87.2H640.975V84.2V81.2H501.575V84.2ZM640.975 84.2V87.2C649.633 87.2 656.53 90.6871 660.814 96.151C665.102 101.621 666.975 109.334 665.044 118.159L667.975 118.8L670.906 119.441C673.175 109.066 671.048 99.4794 665.536 92.449C660.02 85.4129 651.317 81.2 640.975 81.2V84.2ZM667.975 118.8L665.033 118.212L662.433 131.212L665.375 131.8L668.317 132.388L670.917 119.388L667.975 118.8ZM665.375 131.8L662.446 131.149C660.598 139.467 655.768 147.316 648.813 153.331L650.775 155.6L652.737 157.869C660.582 151.084 666.152 142.133 668.304 132.451L665.375 131.8ZM650.775 155.6L648.375 157.4C652.577 163.003 654.084 170.479 652.246 178.749L655.175 179.4L658.104 180.051C660.266 170.321 658.573 160.997 653.175 153.8L650.775 155.6ZM655.175 179.4L652.239 178.783L642.239 226.383L645.175 227L648.111 227.617L658.111 180.017L655.175 179.4ZM645.175 227V224H623.775V227V230H645.175V227ZM681.683 192.4L678.748 191.778L678.746 191.788L681.683 192.4ZM697.283 118.8L694.352 118.159L694.35 118.168L694.348 118.178L697.283 118.8ZM871.083 118.8L868.152 118.159L868.15 118.168L868.148 118.178L871.083 118.8ZM855.483 192.4L852.548 191.778L852.546 191.788L855.483 192.4ZM718.883 118.8L715.954 118.149L715.951 118.164L715.948 118.178L718.883 118.8ZM703.283 192.4L700.348 191.778L700.343 191.803L700.338 191.827L703.283 192.4ZM834.083 192.4L831.148 191.778L831.143 191.803L831.138 191.827L834.083 192.4ZM849.683 118.8L846.754 118.149L846.751 118.164L846.748 118.178L849.683 118.8ZM709.083 227V224C700.316 224 693.366 220.506 689.035 215.037C684.697 209.561 682.78 201.841 684.62 193.012L681.683 192.4L678.746 191.788C676.585 202.159 678.768 211.739 684.331 218.763C689.9 225.794 698.65 230 709.083 230V227ZM681.683 192.4L684.618 193.022L700.218 119.422L697.283 118.8L694.348 118.178L678.748 191.778L681.683 192.4ZM697.283 118.8L700.214 119.441C704.126 101.557 721.554 87.2 739.283 87.2V84.2V81.2C718.611 81.2 698.84 97.643 694.352 118.159L697.283 118.8ZM739.283 84.2V87.2H844.083V84.2V81.2H739.283V84.2ZM844.083 84.2V87.2C852.741 87.2 859.638 90.6871 863.922 96.151C868.21 101.621 870.083 109.334 868.152 118.159L871.083 118.8L874.014 119.441C876.283 109.066 874.156 99.4794 868.644 92.449C863.127 85.4129 854.424 81.2 844.083 81.2V84.2ZM871.083 118.8L868.148 118.178L852.548 191.778L855.483 192.4L858.418 193.022L874.018 119.422L871.083 118.8ZM855.483 192.4L852.546 191.788C848.825 209.65 831.409 224 813.883 224V227V230C834.357 230 854.141 213.55 858.42 193.012L855.483 192.4ZM813.883 227V224H709.083V227V230H813.883V227ZM734.883 105.6V102.6C726.199 102.6 717.842 109.654 715.954 118.149L718.883 118.8L721.811 119.451C723.124 113.546 729.166 108.6 734.883 108.6V105.6ZM718.883 118.8L715.948 118.178L700.348 191.778L703.283 192.4L706.218 193.022L721.818 119.422L718.883 118.8ZM703.283 192.4L700.338 191.827C699.495 196.16 700.364 200.318 702.788 203.44C705.229 206.583 709.037 208.4 713.483 208.4V205.4V202.4C710.729 202.4 708.736 201.317 707.527 199.76C706.302 198.182 705.67 195.84 706.228 192.973L703.283 192.4ZM713.483 205.4V208.4H818.283V205.4V202.4H713.483V205.4ZM818.283 205.4V208.4C826.897 208.4 835.349 201.603 837.028 192.973L834.083 192.4L831.138 191.827C830.016 197.597 824.068 202.4 818.283 202.4V205.4ZM834.083 192.4L837.018 193.022L852.618 119.422L849.683 118.8L846.748 118.178L831.148 191.778L834.083 192.4ZM849.683 118.8L852.611 119.451C853.578 115.103 852.771 110.884 850.383 107.7C847.978 104.494 844.162 102.6 839.683 102.6V105.6V108.6C842.404 108.6 844.387 109.706 845.583 111.3C846.795 112.916 847.388 115.297 846.754 118.149L849.683 118.8ZM839.683 105.6V102.6H734.883V105.6V108.6H839.683V105.6ZM880.047 227L877.107 226.401L876.374 230H880.047V227ZM884.447 205.4V202.4H881.996L881.507 204.801L884.447 205.4ZM1034.85 192.4L1031.91 191.768L1031.91 191.798L1031.9 191.827L1034.85 192.4ZM1037.65 179.4L1034.72 178.749L1034.72 178.759L1034.71 178.768L1037.65 179.4ZM895.447 131.8L898.376 132.448L898.383 132.418L898.389 132.388L895.447 131.8ZM898.047 118.8L895.116 118.159L895.11 118.185L895.105 118.212L898.047 118.8ZM1074.65 84.2L1077.59 84.8042L1078.33 81.2H1074.65V84.2ZM1070.25 105.6V108.6H1072.69L1073.19 106.204L1070.25 105.6ZM919.647 118.8L916.718 118.149L916.711 118.18L916.705 118.212L919.647 118.8ZM917.047 131.8L919.975 132.451L919.982 132.42L919.989 132.388L917.047 131.8ZM1059.05 179.4L1061.98 180.032L1061.98 180.018L1059.05 179.4ZM1056.25 192.4L1053.31 191.768L1053.31 191.778L1053.31 191.788L1056.25 192.4ZM880.047 227L882.987 227.599L887.387 205.999L884.447 205.4L881.507 204.801L877.107 226.401L880.047 227ZM884.447 205.4V208.4H1019.05V205.4V202.4H884.447V205.4ZM1019.05 205.4V208.4C1027.66 208.4 1036.11 201.603 1037.79 192.973L1034.85 192.4L1031.9 191.827C1030.78 197.597 1024.83 202.4 1019.05 202.4V205.4ZM1034.85 192.4L1037.78 193.032L1040.58 180.032L1037.65 179.4L1034.71 178.768L1031.91 191.768L1034.85 192.4ZM1037.65 179.4L1040.58 180.051C1041.55 175.67 1040.67 171.477 1038.2 168.344C1035.73 165.208 1031.88 163.4 1027.45 163.4V166.4V169.4C1030.21 169.4 1032.26 170.492 1033.49 172.056C1034.72 173.623 1035.34 175.93 1034.72 178.749L1037.65 179.4ZM1027.45 166.4V163.4H922.647V166.4V169.4H1027.45V166.4ZM922.647 166.4V163.4C913.892 163.4 906.943 159.865 902.632 154.373C898.316 148.874 896.45 141.161 898.376 132.448L895.447 131.8L892.518 131.152C890.244 141.439 892.378 151.026 897.912 158.077C903.451 165.135 912.202 169.4 922.647 169.4V166.4ZM895.447 131.8L898.389 132.388L900.989 119.388L898.047 118.8L895.105 118.212L892.505 131.212L895.447 131.8ZM898.047 118.8L900.978 119.441C904.89 101.557 922.319 87.2 940.047 87.2V84.2V81.2C919.375 81.2 899.604 97.643 895.116 118.159L898.047 118.8ZM940.047 84.2V87.2H1074.65V84.2V81.2H940.047V84.2ZM1074.65 84.2L1071.71 83.5958L1067.31 104.996L1070.25 105.6L1073.19 106.204L1077.59 84.8042L1074.65 84.2ZM1070.25 105.6V102.6H935.647V105.6V108.6H1070.25V105.6ZM935.647 105.6V102.6C926.963 102.6 918.606 109.654 916.718 118.149L919.647 118.8L922.575 119.451C923.888 113.546 929.931 108.6 935.647 108.6V105.6ZM919.647 118.8L916.705 118.212L914.105 131.212L917.047 131.8L919.989 132.388L922.589 119.388L919.647 118.8ZM917.047 131.8L914.118 131.149C913.145 135.53 914.024 139.723 916.49 142.856C918.959 145.992 922.812 147.8 927.247 147.8V144.8V141.8C924.482 141.8 922.435 140.708 921.204 139.144C919.97 137.577 919.349 135.27 919.975 132.451L917.047 131.8ZM927.247 144.8V147.8H1032.05V144.8V141.8H927.247V144.8ZM1032.05 144.8V147.8C1040.69 147.8 1047.54 151.324 1051.8 156.816C1056.08 162.321 1057.95 170.05 1056.11 178.782L1059.05 179.4L1061.98 180.018C1064.14 169.75 1062.01 160.179 1056.54 153.134C1051.06 146.076 1042.41 141.8 1032.05 141.8V144.8ZM1059.05 179.4L1056.11 178.768L1053.31 191.768L1056.25 192.4L1059.18 193.032L1061.98 180.032L1059.05 179.4ZM1056.25 192.4L1053.31 191.788C1049.59 209.65 1032.17 224 1014.65 224V227V230C1035.12 230 1054.91 213.55 1059.18 193.012L1056.25 192.4ZM1014.65 227V224H880.047V227V230H1014.65V227Z" fill="#D7FF6B" mask="url(#path-3-outside-1_69_2)"/>
</g>
<g filter="url(#filter2_d_69_2)">
<mask id="path-5-outside-2_69_2" maskUnits="userSpaceOnUse" x="127" y="81" width="340" height="149" fill="black">
<rect fill="white" x="127" y="81" width="340" height="149"/>
<path d="M279.952 227C274.152 227 268.352 224 265.352 219.6L181.752 105.8C181.552 105.8 181.552 105.8 181.552 105.6H178.552L152.752 227H131.152L158.152 99.6C159.952 91.2 168.352 84.2 176.952 84.2H186.352C192.152 84.2 197.952 87.2 200.752 91.6L284.552 205.4H284.752H287.952L313.752 84.2H335.152L308.152 211.4C306.352 220 298.152 227 289.552 227H279.952ZM325.098 227L347.298 122.2H368.898L346.698 227H325.098ZM350.098 109.2L354.698 87.6H376.298L371.698 109.2H350.098ZM396.709 227C380.309 227 369.709 213.6 373.109 197.2L394.109 98.4H415.709L410.709 122.2H462.909L458.309 143.8H406.109L394.709 197.2C393.709 201.8 396.509 205.4 401.109 205.4H454.709L450.309 227H396.709Z"/>
</mask>
<path d="M279.952 227C274.152 227 268.352 224 265.352 219.6L181.752 105.8C181.552 105.8 181.552 105.8 181.552 105.6H178.552L152.752 227H131.152L158.152 99.6C159.952 91.2 168.352 84.2 176.952 84.2H186.352C192.152 84.2 197.952 87.2 200.752 91.6L284.552 205.4H284.752H287.952L313.752 84.2H335.152L308.152 211.4C306.352 220 298.152 227 289.552 227H279.952ZM325.098 227L347.298 122.2H368.898L346.698 227H325.098ZM350.098 109.2L354.698 87.6H376.298L371.698 109.2H350.098ZM396.709 227C380.309 227 369.709 213.6 373.109 197.2L394.109 98.4H415.709L410.709 122.2H462.909L458.309 143.8H406.109L394.709 197.2C393.709 201.8 396.509 205.4 401.109 205.4H454.709L450.309 227H396.709Z" fill="#D7FF6B"/>
<path d="M265.352 219.6L267.831 217.91L267.801 217.866L267.77 217.824L265.352 219.6ZM181.752 105.8L184.17 104.024L183.271 102.8H181.752V105.8ZM181.552 105.6H184.552V102.6H181.552V105.6ZM178.552 105.6V102.6H176.123L175.618 104.976L178.552 105.6ZM152.752 227V230H155.182L155.687 227.624L152.752 227ZM131.152 227L128.218 226.378L127.45 230H131.152V227ZM158.152 99.6L155.219 98.9714L155.218 98.978L158.152 99.6ZM200.752 91.6L198.221 93.2106L198.276 93.2967L198.337 93.3789L200.752 91.6ZM284.552 205.4L282.137 207.179L283.036 208.4H284.552V205.4ZM287.952 205.4V208.4H290.381L290.887 206.025L287.952 205.4ZM313.752 84.2V81.2H311.324L310.818 83.5754L313.752 84.2ZM335.152 84.2L338.087 84.8229L338.856 81.2H335.152V84.2ZM308.152 211.4L305.218 210.777L305.216 210.785L308.152 211.4ZM279.952 227V224C275.077 224 270.235 221.436 267.831 217.91L265.352 219.6L262.874 221.29C266.47 226.564 273.228 230 279.952 230V227ZM265.352 219.6L267.77 217.824L184.17 104.024L181.752 105.8L179.335 107.576L262.935 221.376L265.352 219.6ZM181.752 105.8V102.8C181.629 102.8 181.791 102.796 181.968 102.815C182.123 102.832 182.968 102.923 183.699 103.654C184.43 104.385 184.52 105.229 184.537 105.384C184.557 105.561 184.552 105.723 184.552 105.6H181.552H178.552C178.552 105.616 178.552 105.671 178.553 105.727C178.554 105.781 178.558 105.901 178.574 106.047C178.597 106.258 178.7 107.14 179.456 107.896C180.212 108.652 181.094 108.755 181.305 108.779C181.452 108.795 181.572 108.798 181.625 108.799C181.681 108.8 181.736 108.8 181.752 108.8V105.8ZM181.552 105.6V102.6H178.552V105.6V108.6H181.552V105.6ZM178.552 105.6L175.618 104.976L149.818 226.376L152.752 227L155.687 227.624L181.487 106.224L178.552 105.6ZM152.752 227V224H131.152V227V230H152.752V227ZM131.152 227L134.087 227.622L161.087 100.222L158.152 99.6L155.218 98.978L128.218 226.378L131.152 227ZM158.152 99.6L161.086 100.229C162.599 93.1659 169.813 87.2 176.952 87.2V84.2V81.2C166.891 81.2 157.306 89.2341 155.219 98.9714L158.152 99.6ZM176.952 84.2V87.2H186.352V84.2V81.2H176.952V84.2ZM186.352 84.2V87.2C191.251 87.2 196.036 89.7758 198.221 93.2106L200.752 91.6L203.283 89.9894C199.869 84.6242 193.054 81.2 186.352 81.2V84.2ZM200.752 91.6L198.337 93.3789L282.137 207.179L284.552 205.4L286.968 203.621L203.168 89.8211L200.752 91.6ZM284.552 205.4V208.4H284.752V205.4V202.4H284.552V205.4ZM284.752 205.4V208.4H287.952V205.4V202.4H284.752V205.4ZM287.952 205.4L290.887 206.025L316.687 84.8246L313.752 84.2L310.818 83.5754L285.018 204.775L287.952 205.4ZM313.752 84.2V87.2H335.152V84.2V81.2H313.752V84.2ZM335.152 84.2L332.218 83.5771L305.218 210.777L308.152 211.4L311.087 212.023L338.087 84.8229L335.152 84.2ZM308.152 211.4L305.216 210.785C303.687 218.089 296.639 224 289.552 224V227V230C299.666 230 309.017 221.911 311.089 212.015L308.152 211.4ZM289.552 227V224H279.952V227V230H289.552V227ZM325.098 227L322.163 226.378L321.396 230H325.098V227ZM347.298 122.2V119.2H344.867L344.363 121.578L347.298 122.2ZM368.898 122.2L371.833 122.822L372.6 119.2H368.898V122.2ZM346.698 227V230H349.129L349.633 227.622L346.698 227ZM350.098 109.2L347.163 108.575L346.391 112.2H350.098V109.2ZM354.698 87.6V84.6H352.269L351.763 86.9751L354.698 87.6ZM376.298 87.6L379.232 88.2249L380.004 84.6H376.298V87.6ZM371.698 109.2V112.2H374.126L374.632 109.825L371.698 109.2ZM325.098 227L328.033 227.622L350.233 122.822L347.298 122.2L344.363 121.578L322.163 226.378L325.098 227ZM347.298 122.2V125.2H368.898V122.2V119.2H347.298V122.2ZM368.898 122.2L365.963 121.578L343.763 226.378L346.698 227L349.633 227.622L371.833 122.822L368.898 122.2ZM346.698 227V224H325.098V227V230H346.698V227ZM350.098 109.2L353.032 109.825L357.632 88.2249L354.698 87.6L351.763 86.9751L347.163 108.575L350.098 109.2ZM354.698 87.6V90.6H376.298V87.6V84.6H354.698V87.6ZM376.298 87.6L373.363 86.9751L368.763 108.575L371.698 109.2L374.632 109.825L379.232 88.2249L376.298 87.6ZM371.698 109.2V106.2H350.098V109.2V112.2H371.698V109.2ZM373.109 197.2L370.174 196.576L370.173 196.584L370.171 196.591L373.109 197.2ZM394.109 98.4V95.4H391.679L391.174 97.7763L394.109 98.4ZM415.709 98.4L418.645 99.0168L419.404 95.4H415.709V98.4ZM410.709 122.2L407.773 121.583L407.013 125.2H410.709V122.2ZM462.909 122.2L465.843 122.825L466.615 119.2H462.909V122.2ZM458.309 143.8V146.8H460.737L461.243 144.425L458.309 143.8ZM406.109 143.8V140.8H403.681L403.175 143.174L406.109 143.8ZM394.709 197.2L397.64 197.837L397.642 197.826L394.709 197.2ZM454.709 205.4L457.648 205.999L458.381 202.4H454.709V205.4ZM450.309 227V230H452.759L453.248 227.599L450.309 227ZM396.709 227V224C389.359 224 383.502 221.019 379.836 216.388C376.164 211.75 374.509 205.224 376.046 197.809L373.109 197.2L370.171 196.591C368.308 205.576 370.253 213.95 375.131 220.112C380.015 226.281 387.658 230 396.709 230V227ZM373.109 197.2L376.043 197.824L397.043 99.0237L394.109 98.4L391.174 97.7763L370.174 196.576L373.109 197.2ZM394.109 98.4V101.4H415.709V98.4V95.4H394.109V98.4ZM415.709 98.4L412.773 97.7832L407.773 121.583L410.709 122.2L413.645 122.817L418.645 99.0168L415.709 98.4ZM410.709 122.2V125.2H462.909V122.2V119.2H410.709V122.2ZM462.909 122.2L459.974 121.575L455.374 143.175L458.309 143.8L461.243 144.425L465.843 122.825L462.909 122.2ZM458.309 143.8V140.8H406.109V143.8V146.8H458.309V143.8ZM406.109 143.8L403.175 143.174L391.775 196.574L394.709 197.2L397.642 197.826L409.042 144.426L406.109 143.8ZM394.709 197.2L391.777 196.563C391.117 199.601 391.667 202.592 393.443 204.87C395.227 207.158 397.997 208.4 401.109 208.4V205.4V202.4C399.62 202.4 398.69 201.842 398.174 201.18C397.65 200.508 397.301 199.399 397.64 197.837L394.709 197.2ZM401.109 205.4V208.4H454.709V205.4V202.4H401.109V205.4ZM454.709 205.4L451.769 204.801L447.369 226.401L450.309 227L453.248 227.599L457.648 205.999L454.709 205.4ZM450.309 227V224H396.709V227V230H450.309V227Z" fill="#595959" mask="url(#path-5-outside-2_69_2)"/>
</g>
<defs>
<filter id="filter0_d_69_2" x="726" y="97" width="100" height="122" filterUnits="userSpaceOnUse" color-interpolation-filters="sRGB">
<feFlood flood-opacity="0" result="BackgroundImageFix"/>
<feColorMatrix in="SourceAlpha" type="matrix" values="0 0 0 0 0 0 0 0 0 0 0 0 0 0 0 0 0 0 127 0" result="hardAlpha"/>
<feOffset dy="4"/>
<feGaussianBlur stdDeviation="2"/>
<feComposite in2="hardAlpha" operator="out"/>
<feColorMatrix type="matrix" values="0 0 0 0 0 0 0 0 0 0 0 0 0 0 0 0 0 0 0.25 0"/>
<feBlend mode="normal" in2="BackgroundImageFix" result="effect1_dropShadow_69_2"/>
<feBlend mode="normal" in="SourceGraphic" in2="effect1_dropShadow_69_2" result="shape"/>
</filter>
<filter id="filter1_d_69_2" x="463.674" y="81.2" width="618.652" height="156.8" filterUnits="userSpaceOnUse" color-interpolation-filters="sRGB">
<feFlood flood-opacity="0" result="BackgroundImageFix"/>
<feColorMatrix in="SourceAlpha" type="matrix" values="0 0 0 0 0 0 0 0 0 0 0 0 0 0 0 0 0 0 127 0" result="hardAlpha"/>
<feOffset dy="4"/>
<feGaussianBlur stdDeviation="2"/>
<feComposite in2="hardAlpha" operator="out"/>
<feColorMatrix type="matrix" values="0 0 0 0 0 0 0 0 0 0 0 0 0 0 0 0 0 0 0.25 0"/>
<feBlend mode="normal" in2="BackgroundImageFix" result="effect1_dropShadow_69_2"/>
<feBlend mode="normal" in="SourceGraphic" in2="effect1_dropShadow_69_2" result="shape"/>
</filter>
<filter id="filter2_d_69_2" x="123.45" y="81.2" width="347.165" height="156.8" filterUnits="userSpaceOnUse" color-interpolation-filters="sRGB">
<feFlood flood-opacity="0" result="BackgroundImageFix"/>
<feColorMatrix in="SourceAlpha" type="matrix" values="0 0 0 0 0 0 0 0 0 0 0 0 0 0 0 0 0 0 127 0" result="hardAlpha"/>
<feOffset dy="4"/>
<feGaussianBlur stdDeviation="2"/>
<feComposite in2="hardAlpha" operator="out"/>
<feColorMatrix type="matrix" values="0 0 0 0 0 0 0 0 0 0 0 0 0 0 0 0 0 0 0.25 0"/>
<feBlend mode="normal" in2="BackgroundImageFix" result="effect1_dropShadow_69_2"/>
<feBlend mode="normal" in="SourceGraphic" in2="effect1_dropShadow_69_2" result="shape"/>
</filter>
</defs>
</svg>
